<svg width="105" height="203" viewBox="0 0 105 203" fill="none" xmlns="http://www.w3.org/2000/svg">
<path fill-rule="evenodd" clip-rule="evenodd" d="M62.4288 75.7901C62.4288 74.0083 64.5831 73.116 65.8431 74.3759L77.6123 86.1451C77.9873 86.5202 78.198 87.0289 78.198 87.5594V148.596C78.198 149.701 77.3026 150.596 76.1981 150.596H62.4721C62.4482 150.596 62.4288 150.577 62.4288 150.553C62.4288 150.529 62.4095 150.51 62.3856 150.51H50.0048C48.7052 150.51 47.7385 149.285 47.9243 147.999C48.6275 143.132 48.5879 136.344 47.9475 132.293C47.1867 127.481 45.4683 122.87 42.8938 118.733C40.3193 114.597 36.9411 111.019 32.9592 108.211C29.513 105.781 25.3799 103.76 21.2439 102.589C20.1862 102.289 19.5002 101.238 19.7267 100.162L22.0564 89.0955C22.2851 88.0095 23.3552 87.3139 24.4307 87.5878C30.6013 89.1593 36.8124 91.8254 41.9557 95.4521C47.6442 99.4632 52.4701 104.575 56.148 110.484C57.393 112.485 62.4288 111.499 62.4288 109.143V75.7901Z" fill="#FFFCF2"/>
<path fill-rule="evenodd" clip-rule="evenodd" d="M88.2722 2.08485C88.2722 0.291766 90.4498 -0.595374 91.7028 0.687243L103.472 12.7345C103.837 13.1081 104.041 13.6097 104.041 14.1321L104.041 148.908L104.041 148.937V149.715V152.71C104.041 152.75 104.009 152.782 103.97 152.782C103.933 152.782 103.902 152.811 103.899 152.848C103.49 158.494 102.203 164.046 100.08 169.293C97.4651 175.755 93.632 181.628 88.7997 186.574C83.9675 191.52 78.2309 195.444 71.9173 198.121C65.6037 200.798 58.8368 202.176 52.003 202.176C45.1693 202.176 38.4024 200.798 32.0888 198.121C25.7752 195.444 20.0385 191.52 15.2063 186.574C10.3741 181.628 6.541 175.755 3.92583 169.293C1.56011 163.446 0.232977 157.22 0.00131691 150.908C-0.0391897 149.804 0.860074 148.908 1.96464 148.908H13.5762C14.6807 148.908 15.5707 149.804 15.6286 150.907C15.8496 155.121 16.7679 159.27 18.349 163.177C20.1796 167.701 22.8628 171.812 26.2453 175.274C29.6279 178.737 33.6436 181.483 38.0631 183.357C42.4826 185.231 47.2194 186.195 52.003 186.195C56.7867 186.195 61.5235 185.231 65.943 183.357C70.3625 181.483 74.3782 178.737 77.7607 175.274C81.1433 171.812 83.8265 167.701 85.6571 163.177C87.0543 159.724 87.934 156.082 88.2722 152.374V2.08485ZM78.0222 2.00401C78.0222 0.222199 75.868 -0.670132 74.608 0.589797L62.8388 12.359C62.4637 12.7341 62.253 13.2428 62.253 13.7732V59.424C62.253 59.9544 62.4637 60.4631 62.8388 60.8382L74.608 72.6074C75.868 73.8674 78.0222 72.975 78.0222 71.1932V2.00401Z" fill="#FFFCF2"/>
</svg>
