<svg width="320" height="320" viewBox="0 0 320 320" fill="none" xmlns="http://www.w3.org/2000/svg">
<path d="M0 40C0 17.9086 17.9086 0 40 0H280C302.091 0 320 17.9086 320 40V280C320 302.091 302.091 320 280 320H40C17.9086 320 0 302.091 0 280V40Z" fill="url(#paint0_linear_171_96)" fill-opacity="0.933333"/>
<path fill-rule="evenodd" clip-rule="evenodd" d="M170.429 134.79C170.429 133.008 172.583 132.116 173.843 133.376L185.612 145.145C185.987 145.52 186.198 146.029 186.198 146.559V207.596C186.198 208.701 185.303 209.596 184.198 209.596H170.472C170.448 209.596 170.429 209.577 170.429 209.553C170.429 209.529 170.409 209.51 170.386 209.51H158.005C156.705 209.51 155.739 208.285 155.924 206.999C156.627 202.132 156.588 195.344 155.947 191.293C155.187 186.481 153.468 181.87 150.894 177.733C148.319 173.597 144.941 170.019 140.959 167.211C137.513 164.781 133.38 162.76 129.244 161.589C128.186 161.289 127.5 160.238 127.727 159.162L130.056 148.095C130.285 147.009 131.355 146.314 132.431 146.588C138.601 148.159 144.812 150.825 149.956 154.452C155.644 158.463 160.47 163.575 164.148 169.484C165.393 171.485 170.429 170.499 170.429 168.143V134.79Z" fill="#FFFCF2"/>
<path fill-rule="evenodd" clip-rule="evenodd" d="M196.272 61.0849C196.272 59.2918 198.45 58.4046 199.703 59.6872L211.472 71.7345C211.837 72.1081 212.041 72.6097 212.041 73.1321L212.041 207.908L212.041 207.937V208.715V211.71C212.041 211.75 212.009 211.782 211.97 211.782C211.933 211.782 211.902 211.811 211.899 211.848C211.49 217.494 210.203 223.046 208.08 228.293C205.465 234.755 201.632 240.628 196.8 245.574C191.968 250.52 186.231 254.444 179.917 257.121C173.604 259.798 166.837 261.176 160.003 261.176C153.169 261.176 146.402 259.798 140.089 257.121C133.775 254.444 128.039 250.52 123.206 245.574C118.374 240.628 114.541 234.755 111.926 228.293C109.56 222.446 108.233 216.22 108.001 209.908C107.961 208.804 108.86 207.908 109.965 207.908H121.576C122.681 207.908 123.571 208.804 123.629 209.907C123.85 214.121 124.768 218.27 126.349 222.177C128.18 226.701 130.863 230.812 134.245 234.274C137.628 237.737 141.644 240.483 146.063 242.357C150.483 244.231 155.219 245.195 160.003 245.195C164.787 245.195 169.523 244.231 173.943 242.357C178.363 240.483 182.378 237.737 185.761 234.274C189.143 230.812 191.826 226.701 193.657 222.177C195.054 218.724 195.934 215.082 196.272 211.374V61.0849ZM186.022 61.004C186.022 59.2222 183.868 58.3299 182.608 59.5898L170.839 71.359C170.464 71.7341 170.253 72.2428 170.253 72.7732V118.424C170.253 118.954 170.464 119.463 170.839 119.838L182.608 131.607C183.868 132.867 186.022 131.975 186.022 130.193V61.004Z" fill="#FFFCF2"/>
<defs>
<linearGradient id="paint0_linear_171_96" x1="18.5" y1="24" x2="296.5" y2="308" gradientUnits="userSpaceOnUse">
<stop stop-color="#00CCBF"/>
<stop offset="1" stop-color="#3F7C85"/>
</linearGradient>
</defs>
</svg>
