<svg width="320" height="320" viewBox="0 0 320 320" fill="none" xmlns="http://www.w3.org/2000/svg">
<path d="M0 40C0 17.9086 17.9086 0 40 0H280C302.091 0 320 17.9086 320 40V280C320 302.091 302.091 320 280 320H40C17.9086 320 0 302.091 0 280V40Z" fill="url(#paint0_linear_171_96)" fill-opacity="0.933333"/>
<path fill-rule="evenodd" clip-rule="evenodd" d="M139.527 161.004C127.371 158.497 116.512 151.728 108.908 141.918C101.301 132.104 97.4544 119.892 98.0625 107.49C98.6706 95.0875 103.694 83.3112 112.224 74.2881C120.755 65.2649 132.17 59.3025 144.519 58L144.521 58.0219C144.589 58.0076 144.659 58 144.731 58H183.893C184.784 58 185.23 59.0771 184.601 59.7071L170.831 73.4763C170.644 73.6639 170.389 73.7692 170.124 73.7692H146.096C137.452 74.681 129.54 78.6969 123.569 85.0132C117.597 91.3294 114.081 99.5728 113.655 108.254C113.23 116.936 115.922 125.484 121.247 132.354C125.954 138.427 132.331 142.988 139.627 145.176C146.355 146.67 153.255 149.487 158.879 153.452C164.567 157.463 169.393 162.575 173.071 168.484C175.922 173.065 178.038 178.053 179.352 183.267V128.961L195.121 144.731V208.596H179.352V208.509H164.371C165.544 203.781 165.631 195.106 164.87 190.293C164.11 185.481 162.391 180.87 159.817 176.733C157.242 172.596 153.864 169.018 149.882 166.211C146.814 164.047 143.201 162.208 139.527 161.004Z" fill="#FFFCF2"/>
<path fill-rule="evenodd" clip-rule="evenodd" d="M205.231 58L221 74.1417V209.732V210.539V213.606H220.862C220.458 219.275 219.17 224.85 217.039 230.117C214.424 236.58 210.59 242.452 205.758 247.398C200.926 252.345 195.189 256.268 188.876 258.945C182.562 261.622 175.795 263 168.961 263C162.128 263 155.361 261.622 149.047 258.945C142.734 256.268 136.997 252.345 132.165 247.398C127.333 242.452 123.499 236.58 120.884 230.117C118.269 223.654 116.923 216.728 116.923 209.732H132.535C132.535 214.629 133.477 219.478 135.307 224.002C137.138 228.526 139.821 232.636 143.204 236.099C146.586 239.561 150.602 242.308 155.021 244.182C159.441 246.055 164.178 247.02 168.961 247.02C173.745 247.02 178.482 246.055 182.901 244.182C187.321 242.308 191.337 239.561 194.719 236.099C198.102 232.636 200.785 228.526 202.616 224.002C204.013 220.549 204.892 216.907 205.231 213.198V58ZM194.981 58L179.211 73.7692V121.077L194.981 136.846V58Z" fill="#FFFCF2"/>
<defs>
<linearGradient id="paint0_linear_171_96" x1="18.5" y1="24" x2="296.5" y2="308" gradientUnits="userSpaceOnUse">
<stop offset="0.265" stop-color="#3F7C85"/>
<stop offset="1" stop-color="#16232E"/>
</linearGradient>
</defs>
</svg>
