<svg width="156" height="260" viewBox="0 0 156 260" fill="none" xmlns="http://www.w3.org/2000/svg">
<path fill-rule="evenodd" clip-rule="evenodd" d="M52.6682 130.639C37.2515 127.46 23.4786 118.875 13.8349 106.433C4.18692 93.9851 -0.692024 78.4978 0.079242 62.7678C0.850508 47.0378 7.22115 32.1021 18.0406 20.658C28.8108 9.26612 43.2062 1.72091 58.7861 0.0229405C58.855 0.00791573 58.9266 0 59 0H109.586C110.477 0 110.923 1.07714 110.293 1.70711L92.2929 19.7071C92.1054 19.8946 91.851 20 91.5858 20H61C50.0366 21.1564 40.0021 26.2498 32.4284 34.2606C24.8548 42.2715 20.3954 52.7265 19.8555 63.7375C19.3156 74.7484 22.7309 85.5896 29.4845 94.3029C35.4541 102.005 43.5416 107.79 52.7958 110.565C61.3286 112.459 70.0798 116.032 77.212 121.061C84.4267 126.148 90.5474 132.631 95.212 140.126C98.828 145.936 101.512 152.263 103.178 158.875V90L123.178 110V191H103.178V190.89H84.178C85.6658 184.893 85.7762 173.89 84.8114 167.786C83.8465 161.683 81.667 155.835 78.4018 150.588C75.1366 145.342 70.8521 140.804 65.8018 137.243C61.9104 134.499 57.3285 132.166 52.6682 130.639Z" fill="url(#paint0_linear_122_37)"/>
<path fill-rule="evenodd" clip-rule="evenodd" d="M136 0L156 20.4724V192.441V193.465V197.354H155.825C155.313 204.544 153.679 211.615 150.976 218.295C147.659 226.492 142.798 233.939 136.669 240.213C130.54 246.486 123.265 251.462 115.257 254.858C107.25 258.253 98.6672 260 90 260C81.3328 260 72.7504 258.253 64.7429 254.858C56.7354 251.462 49.4596 246.486 43.3309 240.213C37.2023 233.939 32.3408 226.492 29.0239 218.295C25.7071 210.098 24 201.313 24 192.441H43.8C43.8 198.652 44.995 204.801 47.3168 210.539C49.6385 216.276 53.0416 221.49 57.3317 225.881C61.6217 230.273 66.7148 233.756 72.32 236.133C77.9253 238.509 83.9329 239.733 90 239.733C96.0671 239.733 102.075 238.509 107.68 236.133C113.285 233.756 118.378 230.273 122.668 225.881C126.958 221.49 130.361 216.276 132.683 210.539C134.455 206.159 135.571 201.54 136 196.837V0ZM123 0L103 20V80L123 100V0Z" fill="#0077CC"/>
<defs>
<linearGradient id="paint0_linear_122_37" x1="42.5" y1="19" x2="104" y2="179.5" gradientUnits="userSpaceOnUse">
<stop stop-color="#FF7E3D"/>
<stop offset="0.305" stop-color="#EB5E28"/>
</linearGradient>
</defs>
</svg>
